<svg xmlns="http://www.w3.org/2000/svg" width="1200" height="1200" viewBox="0 0 1200 1200" role="img" aria-labelledby="title desc">
  <title id="title">ADLocal</title>
  <desc id="desc">Dos comercios locales y sus comunidades unidos por un puente, bajo un marcador de ubicación.</desc>

  <defs>
    <path id="awning-left" d="M264 360h68l-33 112c-8 27-25 42-53 42-33 0-54-22-48-48 2-9 7-19 13-29l38-63c4-8 9-14 15-14Zm82 0h64l22 106c6 29-14 48-47 48-34 0-55-19-48-48l9-106Zm78 0h70c13 0 22 7 29 19l43 69c18 30 4 66-37 66-28 0-46-15-54-42l-51-112Z"/>
    <path id="store-left" fill-rule="evenodd" d="M221 520c27 11 54 2 78-23 19 27 46 31 71 29 27-2 43-10 59-29 22 26 52 34 95 23v220c0 13-10 23-23 23H244c-13 0-23-10-23-23V520Zm39 38v153c0 10 8 18 18 18h190c10 0 18-8 18-18V558c-23-1-41-8-58-21-15 12-34 20-59 21-26 0-49-6-70-21-13 11-26 17-39 21Z"/>
  </defs>

  <!-- Localización y cercanía -->
  <g fill="#F5B72E">
    <rect x="605" y="187" width="30" height="72" rx="15"/>
    <rect x="529" y="215" width="30" height="63" rx="15" transform="rotate(-39 544 246.5)"/>
    <rect x="681" y="215" width="30" height="63" rx="15" transform="rotate(39 696 246.5)"/>
  </g>
  <path fill="#EA6A32" fill-rule="evenodd" d="M620 277c-45 0-79 34-79 78 0 54 79 138 79 138s79-84 79-138c0-44-34-78-79-78Zm0 48a30 30 0 1 0 0 60 30 30 0 0 0 0-60Z"/>

  <!-- Dos comercios; se reutiliza la misma geometría para mantener simetría. -->
  <g fill="#EA6A32">
    <use href="#awning-left"/>
    <use href="#store-left"/>
    <circle cx="375" cy="588" r="45"/>
    <path d="M288 728v-25c0-40 34-73 81-73 42 0 66 23 90 35 18 9 29 6 47-7 44-33 71-51 114-58v37c-36 6-61 25-98 51-32 23-57 27-87 11l-15-9v38H288Z"/>
  </g>
  <g fill="#008E91" transform="translate(1240 0) scale(-1 1)">
    <use href="#awning-left"/>
    <use href="#store-left"/>
    <circle cx="375" cy="588" r="45"/>
    <path d="M288 728v-25c0-40 34-73 81-73 42 0 66 23 90 35 18 9 29 6 47-7 44-33 71-51 114-58v37c-36 6-61 25-98 51-32 23-57 27-87 11l-15-9v38H288Z"/>
  </g>

  <!-- Texto editable: ADLocal, sin eslogan ni tipografía incrustada como imagen. -->
  <text x="112" y="1005" font-family="Arial Black, Arial, Helvetica, sans-serif" font-size="238" font-weight="900" letter-spacing="-12"><tspan fill="#EA6A32">AD</tspan><tspan fill="#008E91">Local</tspan></text>
</svg>
